<svg xmlns="http://www.w3.org/2000/svg" width="21" height="20" viewBox="0 0 21 20">
  <g fill="#FFF" transform="translate(0 .222)">
    <path d="M19.3972487,3.19699153 L14.0427513,0.105351314 L14.0380952,0.103023272 C14.0380952,0.103023272 14.0357672,0.100695229 14.0357672,0.100695229 L14.0357672,0.100695229 C13.7936508,-0.0343312255 13.4956614,-0.0343312255 13.2582011,0.105351314 C13.0184127,0.245033854 12.8670899,0.505774595 12.8670899,0.782811632 L12.8670899,2.04926666 C12.8275132,2.06090687 12.7856085,2.07254708 12.7460317,2.08418729 C11.8962963,2.33328782 11.0698413,2.66619787 10.2899471,3.07360528 C9.52169312,3.47635661 8.79068783,3.95826137 8.1178836,4.50302327 C7.45439153,5.04080105 6.84444444,5.64609205 6.30201058,6.30027195 C5.76656085,6.94746772 5.29396825,7.64820846 4.89820106,8.38154179 C4.50708995,9.107891 4.18582011,9.87381692 3.94835979,10.6583672 C3.71322751,11.4336053 3.55259259,12.2321238 3.4757672,13.0352984 C3.40592593,13.7639757 3.40126984,14.5042931 3.46412698,15.2352984 C3.48507937,15.4750868 3.68296296,15.6613302 3.92507937,15.6636582 C3.92740741,15.6636582 3.92973545,15.6636582 3.93206349,15.6636582 C4.16952381,15.6636582 4.36973545,15.486727 4.39767196,15.2492667 C4.47449735,14.5857746 4.61185185,13.9292667 4.80740741,13.3006952 C5.01460317,12.625563 5.28931217,11.9737111 5.62455026,11.3591079 C5.95513228,10.7538169 6.34391534,10.1787905 6.78624339,9.6526529 C7.21925926,9.1358275 7.70582011,8.65857883 8.22962963,8.23953121 C8.74645503,7.82513967 9.30285714,7.46196507 9.88486772,7.16164761 C10.4598942,6.86365819 11.0628571,6.62386983 11.6774603,6.44926666 C12.0685714,6.33752063 12.4666667,6.25138306 12.8670899,6.19085396 L12.8670899,6.9684201 C12.8670899,7.24778518 13.0160847,7.50619787 13.2582011,7.64588041 C13.3769312,7.71572168 13.5142857,7.75064232 13.6516402,7.75064232 C13.7866667,7.75064232 13.9216931,7.71572168 14.0404233,7.64820846 L19.3972487,4.5542402 C19.6393651,4.41455766 19.7906878,4.15381692 19.7906878,3.87445184 C19.7883598,3.59508676 19.6393651,3.33667407 19.3972487,3.19699153 Z"/>
    <path d="M18.3449735,7.3758275 C17.928254,7.3758275 17.5930159,7.71339364 17.5930159,8.12778518 L17.5930159,17.4981555 C17.5930159,17.686727 17.4393651,17.8403778 17.2507937,17.8403778 L1.84846561,17.8403778 C1.65989418,17.8403778 1.50624339,17.686727 1.50624339,17.4981555 L1.50624339,2.09815555 C1.50624339,1.90958412 1.65989418,1.75593332 1.84846561,1.75593332 L9.37502646,1.75593332 C9.79174603,1.75593332 10.1269841,1.41836719 10.1269841,1.00397565 C10.1269841,0.587256076 9.78941799,0.252017981 9.37502646,0.252017981 L1.84846561,0.252017981 C0.826455026,0.252017981 0,1.08080105 0,2.10048359 L0,17.5004836 C0,18.5224942 0.828783069,19.3489492 1.84846561,19.3489492 L17.2484656,19.3489492 C18.2704762,19.3489492 19.0969312,18.5201661 19.0969312,17.5004836 L19.0969312,8.12778518 C19.0969312,7.7110656 18.7616931,7.3758275 18.3449735,7.3758275 Z"/>
  </g>
</svg>
