<svg xmlns="http://www.w3.org/2000/svg" width="26" height="24" viewBox="0 0 26 24">
  <path d="M5.51151515,0.0307070707 L14.5547475,0.0307070707 C17.0157576,0.0307070707 19.1119192,1.68 19.7967677,3.92565657 L18.0993939,5.62262626 L18.0993939,5.50868687 C18.0993939,3.55515152 16.5082828,1.9640404 14.5547475,1.9640404 L5.51151515,1.9640404 C3.56040404,1.9640404 1.96727273,3.55757576 1.96727273,5.50868687 L1.96727273,18.5175758 C1.96727273,20.4715152 3.5579798,22.0626263 5.51151515,22.0626263 L14.5547475,22.0626263 C16.5082828,22.0626263 18.0993939,20.4715152 18.0993939,18.5175758 L18.0993939,15.6529293 L20.0327273,13.719596 L20.0327273,18.5175758 C20.0327273,21.5272727 17.5640404,23.9955556 14.5547475,23.9955556 L5.51151515,23.9955556 C2.49979798,23.9955556 0.0335353535,21.5292929 0.0335353535,18.5175758 L0.0335353535,5.50868687 C0.0335353535,2.49454545 2.49737374,0.0307070707 5.51151515,0.0307070707 Z M23.2674747,4.78383838 L22.020202,3.53212121 L12.9688889,12.5777778 L11.6484848,17.0868687 L16.1583838,15.7672727 L25.2056566,6.7220202 L23.9579798,5.46989899 L16.6464646,12.7781818 L15.9547475,12.0913131 L23.2674747,4.78383838 Z M4.83919192,16.5030303 L10.4743434,16.5030303 L9.90868687,18.4367677 L4.83919192,18.4367677 L4.83919192,16.5030303 Z M4.83919192,11.0476768 L12.6723232,11.0476768 L11.8222222,11.8977778 L11.5050505,12.9810101 L4.83919192,12.9810101 L4.83919192,11.0476768 Z M4.83919192,5.59232323 L15.2246465,5.59232323 L15.2246465,7.52606061 L4.83919192,7.52606061 L4.83919192,5.59232323 Z"/>
</svg>
