<svg xmlns="http://www.w3.org/2000/svg" width="36" height="36" viewBox="0 0 36 36"><g fill="none" fill-rule="evenodd"><path fill="#FFD600" fill-rule="nonzero" d="M18,0 C8.05970149,0 0,8.05970149 0,18 C0,27.9402985 8.05970149,36 18,36 C27.9402985,36 36,27.9402985 36,18 C36,8.05970149 27.9402985,0 18,0 Z"/><path fill="#FF7800" d="M29.1940299,19.4776119 C29.0597015,19.4776119 28.880597,19.4328358 28.7462687,19.3880597 L25.8358209,27.761194 C25.8358209,27.761194 22.4776119,26.2835821 18,26.2835821 C13.5223881,26.2835821 10.1641791,27.761194 10.1641791,27.761194 L7.25373134,19.3880597 C7.11940299,19.4328358 6.98507463,19.4776119 6.80597015,19.4776119 C6.08955224,19.4776119 5.50746269,18.8955224 5.50746269,18.1791045 C5.50746269,17.4626866 6.08955224,16.880597 6.80597015,16.880597 C7.52238806,16.880597 8.10447761,17.4626866 8.10447761,18.1791045 C8.10447761,18.4477612 8.01492537,18.6716418 7.88059701,18.8955224 L11.0597015,20.9552239 L11.0597015,16.3432836 C10.2089552,16.3432836 9.53731343,15.6716418 9.53731343,14.8208955 C9.53731343,13.9701493 10.2089552,13.2985075 11.0597015,13.2985075 C11.9104478,13.2985075 12.5820896,13.9701493 12.5820896,14.8208955 C12.5820896,15.2238806 12.4029851,15.6268657 12.1343284,15.8955224 L15,18.761194 L17.3731343,11.6865672 C16.6567164,11.4626866 16.1641791,10.7910448 16.1641791,10.0298507 C16.1641791,9.04477612 16.9701493,8.28358209 17.9104478,8.28358209 C18.8955224,8.28358209 19.6567164,9.08955224 19.6567164,10.0298507 C19.6567164,10.7910448 19.1641791,11.4626866 18.4477612,11.6865672 L20.8208955,18.761194 L23.6865672,15.8955224 C23.4179104,15.6268657 23.238806,15.2238806 23.238806,14.8208955 C23.238806,13.9701493 23.9104478,13.2985075 24.761194,13.2985075 C25.6119403,13.2985075 26.2835821,13.9701493 26.2835821,14.8208955 C26.2835821,15.6716418 25.6119403,16.3432836 24.761194,16.3432836 L24.761194,20.9104478 L27.9402985,18.8507463 C27.8059701,18.6268657 27.7164179,18.4029851 27.7164179,18.1343284 C27.7164179,17.4179104 28.2985075,16.8358209 29.0149254,16.8358209 C29.7313433,16.8358209 30.3134328,17.4179104 30.3134328,18.1343284 C30.3134328,18.8507463 29.9104478,19.4776119 29.1940299,19.4776119 Z"/></g></svg>