<svg xmlns="http://www.w3.org/2000/svg" width="19" height="22" viewBox="0 0 19 22">
  <g fill="#FFF" transform="translate(.444)">
    <path d="M4.4377025 8.36907216C5.10574374 8.36907216 5.60677467 8.23298969 5.91693667 7.96082474 6.25095729 7.68865979 6.39410898 7.25773196 6.39410898 6.69072165 6.39410898 6.10103093 6.22709867 5.67010309 5.91693667 5.39793814 5.60677467 5.1257732 5.10574374 4.96701031 4.41384389 4.96701031L2.81531664 4.96701031 2.81531664 9.68453608 3.8173785 9.68453608 3.8173785 8.36907216 4.4377025 8.36907216 4.4377025 8.36907216zM3.8173785 5.8742268L4.38998527 5.8742268C4.72400589 5.8742268 4.96259205 5.94226804 5.12960236 6.0556701 5.29661267 6.16907216 5.36818851 6.37319588 5.36818851 6.64536082 5.36818851 6.91752577 5.29661267 7.12164948 5.17731959 7.25773196 5.05802651 7.39381443 4.81944035 7.46185567 4.48541973 7.46185567L3.8173785 7.46185567 3.8173785 5.8742268 3.8173785 5.8742268zM10.3307806 9.02680412C10.7602356 8.59587629 10.9511046 8.02886598 10.9511046 7.28041237 10.9511046 6.55463918 10.736377 5.96494845 10.3069219 5.55670103 9.87746686 5.14845361 9.25714286 4.9443299 8.44594993 4.9443299L6.84742268 4.9443299 6.84742268 9.66185567 8.3982327 9.66185567C9.25714286 9.68453608 9.90132548 9.45773196 10.3307806 9.02680412zM9.56730486 8.39175258C9.3287187 8.64123711 8.97083947 8.75463918 8.51752577 8.75463918L7.87334315 8.75463918 7.87334315 5.8742268 8.44594993 5.8742268C8.94698085 5.8742268 9.3287187 6.01030928 9.59116348 6.25979381 9.82974963 6.50927835 9.97290133 6.87216495 9.97290133 7.3257732 9.94904271 7.77938144 9.80589102 8.14226804 9.56730486 8.39175258z"/>
    <polygon points="14.601 5.897 14.601 4.967 11.5 4.967 11.5 9.685 12.502 9.685 12.502 7.825 14.482 7.825 14.482 6.918 12.502 6.918 12.502 5.897"/>
    <path d="M15.9136966,0 L1.50309278,0 C0.668041237,0 0,0.635051546 0,1.42886598 L0,18.1670103 C0,18.9608247 0.668041237,19.5958763 1.50309278,19.5958763 L4.81944035,19.5958763 L4.36612666,19.1649485 L3.91281296,18.7340206 L1.5269514,18.7340206 C1.19293078,18.7340206 0.930486009,18.4845361 0.930486009,18.1670103 L0.930486009,1.42886598 C0.930486009,1.11134021 1.19293078,0.86185567 1.5269514,0.86185567 L15.9614138,0.86185567 C16.2954345,0.86185567 16.5578792,1.11134021 16.5578792,1.42886598 L16.5578792,18.1670103 C16.5578792,18.4845361 16.2954345,18.7340206 15.9614138,18.7340206 L13.9095729,18.7340206 L13.4562592,19.1649485 L13.0029455,19.5958763 L15.9614138,19.5958763 C16.7964654,19.5958763 17.4645066,18.9608247 17.4645066,18.1670103 L17.4645066,1.42886598 C17.440648,0.635051546 16.7487482,0 15.9136966,0 Z"/>
    <polygon points="13.981 16.92 10.856 16.897 10.856 11.998 6.561 11.998 6.561 16.829 3.436 16.784 8.78 21.864"/>
  </g>
</svg>
